Robin Hood (2010) UNRATED DVDRip XviD-MAX

Format                           : AVI
Format/Info                      : Audio Video Interleave
Format profile                   : OpenDML
File size                        : 1.43 GiB
Duration                         : 2h 29mn
Overall bit rate                 : 1 369 Kbps
Writing application              : VirtualDubMod 1.5.10.2 (build 2542/release)
Writing library                  : VirtualDubMod build 2542/release
Original source form             : MAX TORRENTZ
Copyright                        : SIGISMUNT

Video
ID                               : 0
Format                           : MPEG-4 Visual
Format profile                   : AdvancedSimple@L5
Format settings, BVOP            : Yes
Format settings, QPel            : No
Format settings, GMC             : No warppoints
Format settings, Matrix          : Custom
Codec ID                         : XVID
Codec ID/Hint                    : XviD
Duration                         : 2h 29mn
Bit rate                         : 1 173 Kbps
Width                            : 720 pixels
Height                           : 304 pixels
Display aspect ratio             : 2.35:1
Frame rate                       : 25.000 fps
Resolution                       : 24 bits
Colorimetry                      : 4:2:0
Scan type                        : Progressive
Bits/(Pixel*Frame)               : 0.214
Stream size                      : 1.22 GiB (86%)
Writing library                  : XviD 1.2.1 (UTC 2008-12-04)

Audio
ID                               : 1
Format                           : MPEG Audio
Format version                   : Version 1
Format profile                   : Layer 3
Codec ID                         : 55
Codec ID/Hint                    : MP3
Duration                         : 2h 29mn
Bit rate mode                    : Constant
Bit rate                         : 192 Kbps
Channel(s)                       : 2 channels
Sampling rate                    : 48.0 KHz
Resolution                       : 16 bits
Stream size                      : 205 MiB (14%)
Alignment                        : Aligned on interleaves
Interleave, duration             : 623 ms (15.58 video frames)
Interleave, preload duration     : 216 ms
Writing library                  : LAME3.98.2
 
http://www.imdb.com/title/tt0955308/

Screens:
 
http://www.postimg.com/image/21000/20734.jpg
 
http://www.postimg.com/image/21000/20735.jpg
 
http://www.postimg.com/image/21000/20736.jpg
 
http://www.postimg.com/image/21000/20737.jpg
 
http://www.postimg.com/image/21000/20738.jpg

ScreenCaps:
 
http://www.postimg.com/image/21000/20739.jpg

Robin Hood (2010) UNRATED DVDRip XviD-MAX Torrent Free Download
 
http://thepiratebay.org/user/extremezone/0/7

Notes: Perfect a/v quality and sync.Speed note: Currently we have some bandwidth problems so we need some 
big speed fishes to work for all this time our new server can do just 1Mib\s upload instead 5/max 20 starting
connections/max 150 gb total upload/release.Also there's a very big storm here in our motherland with lots of
lightings so grab it fast.Please share as much possible-thanks you pirate thieves!

How To Get Your Maxspeed (uTorrent)

Torrent Client - Preferences - Bandwidth - Number of connections - Set aprox. 500 for each 
Torrent Client - Preferences - BiTorrent - Protocol Encryption - Forced
Bandwidth Allocation - High (Set download/upload limit - Unlimited)
Stop Other Active Torrents - Start downloading and wait for connections.
Enjoy and Seed for at least 1:1 ratio. Don't forget to say thanks/leave reviews.
Greets to all actual/future p2p/scene quality groups and affiliate websites.
Dont trust IMDb robot or bad ratings,always watch some trailers first.
Ignore stupid comments/fake/mislabeled/no-dvdrip/CAM/TS/RAR uploads.
Please report if you see online streaming or other spam links.
If you need translation subs visit some subtitles sites.
Also spread this link to your friends.
Recommended movie player VLC PLAYER.